<svg xmlns="http://www.w3.org/2000/svg" viewBox="0 0 24 24" fill="#3DDC84">
  <path d="M17.523 15.3414c-.5511 0-.9993-.4486-.9993-.9997 0-.551.4482-.9993.9993-.9993.5519 0 .9997.4483.9997.9993 0 .5511-.4478.9997-.9997.9997zm-11.046 0c-.5511 0-.9993-.4486-.9993-.9997 0-.551.4482-.9993.9993-.9993.5519 0 .9997.4483.9997.9993 0 .5511-.4478.9997-.9997.9997zm11.3945-6.6041l1.5833-2.7423c.1259-.218.051-.4973-.1671-.6232-.218-.1259-.4972-.051-.6231.1671l-1.6117 2.7915C15.5413 7.6468 13.8291 7.234 12 7.234c-1.8291 0-3.5413.4128-5.053 1.0994L5.3353 5.5419c-.1259-.2181-.4051-.293-.6231-.1671-.2181.1259-.293.4052-.1671.6232l1.5833 2.7423C3.6558 10.3707 2 12.9772 2 16h20c0-3.0228-1.6558-5.6293-4.1285-7.2627z" />
</svg>